<svg width="24" height="24" viewBox="0 0 24 24" fill="none" xmlns="http://www.w3.org/2000/svg">
<path fill-rule="evenodd" clip-rule="evenodd" d="M10.9405 5.2965C11.3235 4.51164 11.5786 3.99258 11.8023 3.66072L11.8022 3.66096C11.8969 3.52033 11.962 3.4501 12 3.41615C12.038 3.4501 12.1031 3.52033 12.1978 3.66096C12.4214 3.99281 12.6765 4.51184 13.0596 5.29674L15.155 9.59041C15.3398 9.96914 15.5005 10.2983 15.6541 10.5484C15.8114 10.8043 16.0188 11.0775 16.342 11.2401C16.6335 11.3868 16.9621 11.4406 17.2872 11.3894C17.6531 11.3315 17.9306 11.1237 18.148 10.9227C18.3587 10.7279 18.5946 10.4594 18.862 10.1548L18.8852 10.1284C19.4516 9.48372 19.8414 9.04128 20.1432 8.7591C20.2925 8.61941 20.3908 8.54777 20.4511 8.51414L20.452 8.51367C20.4835 8.5251 20.5199 8.54786 20.5559 8.58936C20.5558 8.58932 20.5558 8.58931 20.5557 8.58935C20.5554 8.58951 20.556 8.59139 20.5573 8.59543C20.5661 8.6235 20.6075 8.75564 20.6045 9.13425C20.6009 9.58758 20.5423 10.2184 20.4573 11.1218L20.2439 13.3872C20.0669 15.2699 19.9384 16.6231 19.723 17.649C19.5103 18.6633 19.23 19.2622 18.8126 19.6892C18.4056 20.1055 17.8827 20.3438 17.0115 20.4711C16.1116 20.6027 14.9349 20.6044 13.265 20.6044H10.735C9.06514 20.6044 7.88842 20.6027 6.98863 20.4711C6.11729 20.3438 5.59436 20.1055 5.18744 19.6892C4.77007 19.2622 4.48976 18.6633 4.27704 17.649C4.06168 16.6231 3.9332 15.27 3.75613 13.3872L3.54278 11.1218C3.45791 10.2184 3.39904 9.58758 3.39562 9.13425C3.39262 8.75573 3.43388 8.62358 3.44266 8.59546C3.44393 8.5914 3.44452 8.58951 3.44421 8.58935C3.48018 8.54778 3.51678 8.52504 3.54808 8.51367L3.54902 8.51414C3.60929 8.54777 3.70755 8.61941 3.85689 8.7591C4.15873 9.04128 4.54851 9.48372 5.1149 10.1285L5.13794 10.1548C5.40549 10.4594 5.64142 10.7279 5.85212 10.9227C6.06936 11.1237 6.34704 11.3315 6.71285 11.3894C7.038 11.4406 7.36661 11.3868 7.65813 11.2401C7.98128 11.0775 8.18871 10.8043 8.346 10.5484C8.49972 10.2984 8.66028 9.9693 8.84497 9.59057L10.9405 5.2965ZM20.5559 8.58936C20.5577 8.59139 20.5594 8.59346 20.5612 8.59558C20.56 8.59418 20.559 8.59296 20.5582 8.59198C20.557 8.59049 20.5562 8.58956 20.5559 8.58936ZM12.041 3.38694C12.041 3.38726 12.038 3.38912 12.0324 3.39084C12.0383 3.38741 12.041 3.38648 12.041 3.38694ZM11.9676 3.39084C11.962 3.38912 11.9591 3.38726 11.9591 3.38694C11.9591 3.38648 11.9617 3.38741 11.9676 3.39084ZM12 2C11.343 2 10.9257 2.46457 10.645 2.88098C10.3602 3.30377 10.0629 3.91302 9.71064 4.63512L7.60563 8.94833C7.40193 9.36586 7.27081 9.63262 7.15712 9.81779C7.07817 9.94627 7.03503 9.98753 7.02491 9.99641C6.99594 10.0098 6.96884 10.0142 6.94377 10.0125C6.92773 10.0034 6.88241 9.97492 6.79941 9.89814C6.64851 9.75861 6.46085 9.54636 6.16309 9.20749L6.13615 9.17665C5.60337 8.57008 5.16811 8.0747 4.80978 7.73957C4.62601 7.5678 4.43275 7.40943 4.22983 7.29605C4.02332 7.18066 3.76403 7.08784 3.4683 7.11385C3.02821 7.15248 2.6378 7.37502 2.36402 7.70579C2.03372 8.10494 1.9965 8.66276 2.00024 9.14507C2.00428 9.66533 2.06918 10.3553 2.14983 11.2126L2.1502 11.2166L2.37103 13.5625L2.37127 13.565C2.54325 15.3926 2.67794 16.8239 2.91143 17.9359C3.14919 19.0693 3.50676 19.9662 4.18964 20.6648C4.88265 21.3737 5.73436 21.698 6.78677 21.8521C7.79903 22 9.07789 22 10.6796 22H13.3204C14.9221 22 16.201 22 17.2133 21.8521C18.2659 21.6981 19.1174 21.3737 19.8104 20.6648C20.4932 19.9662 20.8508 19.0693 21.0886 17.9359C21.3221 16.8238 21.4568 15.3925 21.6287 13.5652L21.629 13.5625L21.8498 11.2166L21.8501 11.2137C21.9308 10.3559 21.9957 9.66539 21.9998 9.14507C22.0035 8.66276 21.9665 8.10494 21.6362 7.70579C21.3624 7.37501 20.9718 7.15247 20.5317 7.11385C20.236 7.08784 19.9767 7.18066 19.7702 7.29605C19.5673 7.40943 19.374 7.5678 19.1902 7.73957C18.8317 8.07469 18.3966 8.57008 17.8639 9.17665L17.8369 9.20749C17.5392 9.54635 17.3514 9.75861 17.2006 9.89814C17.1176 9.97492 17.0723 10.0034 17.0562 10.0125C17.0312 10.0142 17.0042 10.0098 16.9751 9.99641C16.965 9.98753 16.9219 9.94627 16.8429 9.81779C16.7292 9.6326 16.5981 9.36586 16.3944 8.94833L14.2895 4.63512C13.9372 3.91302 13.6398 3.30377 13.355 2.88098C13.0744 2.46437 12.6572 2 12 2ZM11.8148 12.8265C11.8856 12.6993 11.9459 12.5915 12 12.498C12.054 12.5915 12.1142 12.6993 12.1851 12.8265L12.2765 12.9905C12.2792 12.9955 12.2821 13.0007 12.285 13.006C12.2889 13.0131 12.293 13.0206 12.2972 13.0282C12.3702 13.162 12.4913 13.3831 12.6929 13.5362C12.899 13.6926 13.1466 13.7464 13.2914 13.7779C13.306 13.781 13.3194 13.7838 13.3317 13.7866L13.5093 13.8268C13.6723 13.8637 13.805 13.8939 13.9185 13.9223C13.8447 14.0132 13.7488 14.1259 13.6241 14.2719L13.5031 14.4134C13.4986 14.4187 13.4939 14.4241 13.489 14.4298C13.4845 14.4349 13.4799 14.4403 13.4752 14.4458C13.3747 14.5614 13.2126 14.7481 13.1377 14.9892C13.0636 15.2274 13.0891 15.4727 13.1053 15.6275C13.1069 15.6429 13.1084 15.6574 13.1097 15.6711L13.1281 15.8599C13.145 16.0351 13.1581 16.1749 13.167 16.2886C13.0779 16.2494 12.9777 16.2033 12.8605 16.1494L12.8287 16.1347L12.6624 16.0583L12.6249 16.0407C12.4914 15.9776 12.2592 15.8681 11.9999 15.8681C11.7406 15.8681 11.5084 15.9776 11.375 16.0407L11.3375 16.0583L11.1711 16.1347L11.1394 16.1493C11.0222 16.2033 10.922 16.2494 10.8329 16.2886C10.8418 16.1749 10.8548 16.0351 10.8718 15.8599L10.8902 15.6711C10.8911 15.6614 10.8921 15.6513 10.8932 15.6408C10.8936 15.6365 10.8941 15.632 10.8946 15.6275C10.9108 15.4727 10.9363 15.2274 10.8622 14.9892C10.7873 14.7481 10.6251 14.5614 10.5247 14.4458C10.52 14.4403 10.5154 14.435 10.5109 14.4298C10.506 14.4242 10.5013 14.4187 10.4968 14.4134L10.3758 14.2719C10.2511 14.1259 10.1551 14.0132 10.0813 13.9223C10.1949 13.8939 10.3276 13.8637 10.4906 13.8268L10.6681 13.7866C10.6784 13.7843 10.6893 13.782 10.7011 13.7795L10.7085 13.7779C10.8533 13.7464 11.1009 13.6926 11.307 13.5362C11.5086 13.3831 11.6296 13.162 11.7027 13.0282C11.7069 13.0206 11.711 13.0131 11.7149 13.006C11.7178 13.0007 11.7206 12.9955 11.7234 12.9905L11.8148 12.8265ZM13.1728 16.6625C13.1726 16.6625 13.1728 16.6614 13.1732 16.6595L13.1728 16.6625ZM10.8271 16.6625L10.8267 16.6595C10.8271 16.6614 10.8273 16.6625 10.8271 16.6625ZM12 10.8379C11.5332 10.8379 11.2425 11.14 11.0822 11.349C10.9295 11.5486 10.7755 11.8249 10.6177 12.1082L10.5962 12.147L10.5046 12.3109C10.4835 12.3491 10.4668 12.379 10.4522 12.4045C10.4268 12.4106 10.3972 12.4173 10.3603 12.4256L10.1826 12.4657L10.139 12.4757C9.83409 12.5445 9.53102 12.6131 9.29836 12.7046C9.04158 12.806 8.69335 13.0031 8.55911 13.4347C8.4272 13.8586 8.59368 14.2175 8.73898 14.4483C8.87337 14.662 9.07768 14.9009 9.28699 15.1454L9.31533 15.1785L9.43649 15.3202C9.46857 15.3576 9.49271 15.386 9.51311 15.4104C9.51097 15.4362 9.5082 15.4652 9.5048 15.5008C9.50374 15.5119 9.50262 15.5237 9.50143 15.5362L9.48305 15.7251L9.47885 15.7684C9.44708 16.0958 9.4164 16.4121 9.42761 16.6651C9.43945 16.9305 9.50315 17.3321 9.86336 17.6056C10.235 17.8876 10.6451 17.8261 10.9054 17.7517C11.1452 17.6828 11.4284 17.5523 11.7137 17.4209C11.7274 17.4147 11.7411 17.4084 11.7547 17.402L11.921 17.3254C11.9273 17.3225 11.9333 17.3198 11.9391 17.3171C11.9623 17.3064 11.9822 17.2973 12 17.2893C12.0178 17.2973 12.0378 17.3065 12.061 17.3172L12.0789 17.3254L12.2453 17.402C12.2588 17.4084 12.2725 17.4147 12.2862 17.4209C12.5715 17.5523 12.8548 17.6828 13.0946 17.7517C13.3548 17.8261 13.765 17.8876 14.1366 17.6056C14.4968 17.3321 14.5605 16.9305 14.5723 16.6651C14.5835 16.4121 14.5529 16.0958 14.5211 15.7684L14.5169 15.7251L14.4985 15.5362C14.4976 15.5261 14.4966 15.5164 14.4957 15.5071C14.4921 15.4686 14.4891 15.4377 14.487 15.4104C14.5072 15.386 14.5314 15.3576 14.5635 15.3202L14.6846 15.1785L14.713 15.1454C14.9223 14.9009 15.1266 14.662 15.261 14.4483C15.4063 14.2175 15.5727 13.8586 15.4408 13.4347C15.3066 13.0032 14.9585 12.806 14.7016 12.7046C14.4689 12.6131 14.1659 12.5445 13.861 12.4757L13.8173 12.4657L13.6397 12.4256C13.6028 12.4173 13.5732 12.4106 13.5478 12.4045C13.5331 12.379 13.5165 12.3491 13.4953 12.3109L13.4037 12.147L13.3822 12.1083C13.2245 11.8249 13.0705 11.5486 12.9177 11.349C12.7574 11.14 12.4667 10.8379 12 10.8379Z" fill="#007ACC"/>
</svg>
