<svg width="20" height="20" viewBox="0 0 20 20" fill="none" xmlns="http://www.w3.org/2000/svg">
<path d="M10 1C5.0275 1 1 5.13211 1 10.2284C1 14.3065 3.5785 17.7648 7.15375 18.9841C7.60375 19.0709 7.76875 18.7853 7.76875 18.5403C7.76875 18.3212 7.76125 17.7405 7.7575 16.9712C5.254 17.5277 4.726 15.7332 4.726 15.7332C4.3165 14.6681 3.72475 14.3832 3.72475 14.3832C2.9095 13.8111 3.78775 13.8229 3.78775 13.8229C4.6915 13.887 5.16625 14.7737 5.16625 14.7737C5.96875 16.1847 7.273 15.777 7.7875 15.5414C7.8685 14.9443 8.10025 14.5381 8.3575 14.3073C6.35875 14.0764 4.258 13.2829 4.258 9.74709C4.258 8.73988 4.60675 7.91659 5.18425 7.27095C5.083 7.03774 4.77925 6.0994 5.263 4.82846C5.263 4.82846 6.01675 4.58116 7.738 5.77462C8.458 5.56958 9.223 5.46785 9.988 5.46315C10.753 5.46785 11.518 5.56958 12.238 5.77462C13.948 4.58116 14.7017 4.82846 14.7017 4.82846C15.1855 6.0994 14.8818 7.03774 14.7917 7.27095C15.3655 7.91659 15.7142 8.73988 15.7142 9.74709C15.7142 13.2923 13.6105 14.0725 11.608 14.2995C11.923 14.5765 12.2155 15.1423 12.2155 16.0071C12.2155 17.242 12.2043 18.2344 12.2043 18.5341C12.2043 18.7759 12.3617 19.0647 12.823 18.9723C16.4237 17.7609 19 14.3002 19 10.2284C19 5.13211 14.9703 1 10 1Z" fill="#C6C9CF"/>
</svg>
