<svg width="167" height="50" viewBox="0 0 167 50" fill="none" xmlns="http://www.w3.org/2000/svg">
<path fill-rule="evenodd" clip-rule="evenodd" d="M50.9736 1.03269C50.7328 1.0522 50.494 1.09046 50.2596 1.14724C49.2189 1.39914 48.2665 2.01627 47.6245 2.97764C47.6245 2.97764 47.2209 3.57146 46.5621 4.54183C48.6148 4.6299 50.8656 4.74117 52.6789 4.8308L52.9884 4.8461C54.2918 4.91102 55.2899 4.9607 55.6782 4.97425C58.2055 5.06457 60.1931 7.02444 60.2772 9.46539C61.4383 9.40047 62.7073 9.33103 64.0638 9.25878C64.2219 9.25036 64.3779 9.23353 64.531 9.20873C66.4128 8.90477 67.8735 7.39705 67.8735 5.45268C67.8735 3.34888 66.1648 1.76598 64.0649 1.64292C62.9274 1.57605 61.8349 1.50797 60.7805 1.44226C57.3844 1.23064 54.3827 1.04359 51.5409 1.00052C51.3529 0.997131 51.1599 1.01068 50.9736 1.03269ZM51.2198 13.1113L51.2196 13.1115V13.1113L51.2198 13.1113ZM55.6334 13.0588C54.4965 13.0818 51.2515 13.111 51.2198 13.1113C52.2871 12.2617 52.8036 11.0972 52.8036 9.62338C52.8036 8.1326 52.2143 6.93806 51.0976 6.08674C51.0976 6.08674 54.6065 6.16013 55.6334 6.18609C57.5319 6.23464 59.0701 7.72442 59.0701 9.62273C59.0701 11.5212 57.5317 13.0227 55.6334 13.0588ZM34.6965 5.60593C34.5261 5.60311 34.3528 5.61497 34.1845 5.63529L34.1846 5.63502C33.2177 5.71358 32.2856 6.12703 31.5896 6.85548C31.4343 7.01807 31.2907 7.19636 31.1611 7.39011L30.1388 8.85561C30.1389 8.85561 30.139 8.85561 30.1391 8.85562L30.1384 8.85663C32.5176 8.92776 36.0086 9.10332 38.4455 9.22638L40.1639 9.31219C42.3564 9.41609 44.0707 11.1186 44.1599 13.2163C45.6915 13.1424 47.1365 13.0792 48.1515 13.06C49.5588 13.0332 50.7688 12.201 51.3007 10.999C51.4865 10.5792 51.5897 10.1144 51.5897 9.62287C51.5897 7.72456 50.0504 6.2551 48.1519 6.18624C47.7645 6.17234 46.7715 6.123 45.4726 6.05846C42.2343 5.89756 37.0945 5.64219 34.6965 5.60593ZM25.2124 10.6204C22.7258 8.79079 19.7532 7.76452 16.4717 7.76452L16.4715 7.76353C6.92804 7.76353 0 16.4357 0 28.381C0 40.3287 6.92573 49 16.4686 49C23.4199 49 28.9791 44.3976 31.4877 37.2815C31.1892 37.2854 30.8927 37.2898 30.5971 37.2941L30.1848 37.3002C27.7755 43.687 22.7335 47.7858 16.4704 47.7858C7.63072 47.7858 1.21569 39.6254 1.21569 28.3807C1.21569 17.1361 7.63086 8.97568 16.4704 8.97568C19.4894 8.97568 22.2266 9.93032 24.5224 11.6328C24.8459 11.8738 25.1609 12.133 25.4674 12.4039C24.9966 13.1203 24.273 14.221 23.4217 15.5148C23.1237 15.2286 22.8154 14.9616 22.4959 14.7138C20.7686 13.3776 18.7268 12.6178 16.4699 12.6178C11.7439 12.6178 7.93635 15.8959 6.0837 21.0074H4.13395C3.42831 23.2029 3.03655 25.6629 3.03655 28.32C3.03655 31.2334 3.51131 33.9057 4.35297 36.254H6.26833C8.18427 41.08 11.8987 44.1447 16.4694 44.1447C20.6845 44.1447 24.1748 41.5434 26.1946 37.3565C25.9321 37.3596 25.6731 37.3631 25.4171 37.3666L25.4114 37.3667C25.2086 37.3694 25.0077 37.3721 24.8082 37.3746C22.9595 40.8157 20.0026 42.9303 16.4695 42.9303C10.4429 42.9303 6.07024 36.8105 6.07024 28.3809C6.07024 19.9512 10.4435 13.8314 16.4695 13.8314C18.4724 13.8314 20.2866 14.5201 21.8243 15.7332C22.1422 15.9833 22.4464 16.2576 22.7388 16.5523C22.0835 17.5481 21.3824 18.6138 20.6824 19.6779C20.412 19.3454 20.127 19.04 19.8221 18.7781C18.8507 17.9421 17.7149 17.4741 16.4696 17.4741C14.3668 17.4741 12.5802 18.8046 11.3711 21.0084H9.318L9.3163 21.0101C8.40745 23.0395 7.89094 25.5358 7.89094 28.321C7.89094 31.3732 8.51637 34.0704 9.59343 36.194H11.616C12.8162 38.1376 14.5074 39.2897 16.469 39.2897C17.9666 39.2897 19.3045 38.6145 20.3889 37.4325L20.2039 37.4346C19.5871 37.4417 19.0184 37.4482 18.5192 37.4534C17.8927 37.8519 17.2057 38.0754 16.4684 38.0754C13.2565 38.0754 10.9251 33.9986 10.9251 28.3813C10.9251 22.764 13.2564 18.6871 16.4684 18.6871C17.1188 18.6871 17.7296 18.861 18.2952 19.1743C18.8157 19.4616 19.2949 19.8703 19.7245 20.3891C18.8508 20.3874 16.6046 20.3874 16.4697 20.3874C16.337 20.3874 16.2066 20.4032 16.0774 20.4326C16.0696 20.4344 16.0624 20.437 16.0554 20.4395C16.0492 20.4417 16.0431 20.444 16.0367 20.4456C14.1851 20.9034 12.7479 24.252 12.7479 28.3203C12.7479 32.3835 14.1823 35.727 16.0288 36.1933C16.0468 36.1984 16.3387 36.2543 16.4708 36.2543C18.8007 36.253 28.7172 36.1087 37.8087 35.9763C45.1376 35.8696 51.9305 35.7707 53.7809 35.7609C56.1473 35.7479 57.0053 33.9788 55.9378 31.478C55.0533 29.4057 52.8771 27.4836 49.7188 27.1924C49.4263 27.165 49.1363 27.1385 48.849 27.1123L48.539 27.084C45.7296 26.917 43.2452 26.7173 42.1853 26.632L42.1848 26.632C41.9045 26.6095 41.7239 26.5949 41.6634 26.5912C41.3292 26.5703 41.0752 26.2812 41.0961 25.9471C41.1164 25.6123 41.3964 25.3555 41.7396 25.3792C41.7712 25.3814 42.6727 25.4074 42.6727 25.4074C43.7066 23.9461 45.3975 21.5498 47.1614 19.0501L47.1642 19.046L47.171 19.0365L47.1719 19.0352C48.2775 17.4683 49.4112 15.8615 50.4295 14.4194C48.2783 14.486 45.9034 14.5628 43.9593 14.6266C43.436 16.2021 41.965 17.3683 40.1625 17.4485C37.0772 17.587 33.5694 17.8208 33.1996 17.8455L33.1679 17.8476C32.495 17.9074 31.9192 17.387 31.8729 16.7186C31.8719 16.7057 31.8732 16.6928 31.8744 16.6799C31.8753 16.6702 31.8763 16.6605 31.8763 16.6509C33.0832 16.5831 36.3647 16.4002 40.1084 16.2359C41.684 16.1666 42.9642 14.9573 42.9642 13.3818C42.9642 11.803 41.685 10.5808 40.1084 10.5244C39.7783 10.5128 38.9248 10.4702 37.8128 10.4147L37.8125 10.4147L37.8124 10.4147C35.1344 10.2811 30.958 10.0726 28.9849 10.0423C28.8443 10.0401 28.6993 10.0497 28.5593 10.0666C27.6335 10.1411 26.7569 10.5989 26.1647 11.3881C25.8548 11.1205 25.5392 10.8614 25.2124 10.6204Z" fill="#007ACC"/>
<path d="M83.8935 3.18L78.8535 19.64C78.8402 19.6533 78.8335 19.7 78.8335 19.78C78.8335 19.8867 78.8535 19.9933 78.8935 20.1C78.9335 20.22 78.9869 20.3333 79.0535 20.44C79.1335 20.5467 79.2135 20.6333 79.2935 20.7C79.3869 20.7667 79.4802 20.8 79.5735 20.8H88.3735L89.7935 16.2L86.8935 13.76L85.7735 17.4H83.1735L86.4935 6.58H89.0935L88.4935 8.54L91.3935 10.96L93.4135 4.34C93.4269 4.32667 93.4335 4.28 93.4335 4.2C93.4335 4.10667 93.4135 4 93.3735 3.88C93.3335 3.76 93.2735 3.64667 93.1935 3.54C93.1269 3.43333 93.0469 3.34667 92.9535 3.28C92.8735 3.21333 92.7869 3.18 92.6935 3.18H83.8935ZM96.8996 13.16L97.7796 22.74L101.62 20.7L101.18 14.6L103.28 13.4L106.04 4.34C106.053 4.32667 106.06 4.28 106.06 4.2C106.06 4.10667 106.04 4 106 3.88C105.96 3.76 105.9 3.64667 105.82 3.54C105.753 3.43333 105.673 3.34667 105.58 3.28C105.5 3.21333 105.413 3.18 105.32 3.18H94.2196L95.4596 5.64L90.8196 20.8H94.4796L96.2796 14.92L96.0596 12.78L97.1996 11.94L98.8396 6.58H101.7L100.26 11.26L96.8996 13.16ZM102.777 20.8H106.737L108.657 16.8L107.137 14.2H109.817L112.837 7.68L112.817 8.18L111.837 14.86H108.517L111.097 19.1L110.917 20.8H114.877L117.257 3.18H111.197L102.777 20.8ZM116.677 20.8H126.557L128.297 15.12L123.957 17.4H122.857L131.957 3.18H122.077L120.337 8.88L124.677 6.58H125.737L116.677 20.8ZM132.303 3.18H137.943L134.843 13.34H137.423L140.523 3.18H144.183L140.023 16.76H136.903L135.663 20.8H132.023L133.263 16.76H131.223C131.13 16.76 131.037 16.7267 130.943 16.66C130.863 16.5933 130.783 16.5067 130.703 16.4C130.637 16.2933 130.583 16.1867 130.543 16.08C130.503 15.96 130.483 15.8467 130.483 15.74C130.483 15.6467 130.49 15.5933 130.503 15.58L133.543 5.64L132.303 3.18ZM84.6535 38.16L85.0335 41.76L91.0335 38.4L93.7935 29.34C93.8069 29.3267 93.8135 29.28 93.8135 29.2C93.8135 29.1067 93.7935 29 93.7535 28.88C93.7135 28.76 93.6535 28.6467 93.5735 28.54C93.5069 28.4333 93.4269 28.3467 93.3335 28.28C93.2535 28.2133 93.1669 28.18 93.0735 28.18H81.9735L83.2135 30.64L78.5735 45.8H82.2335L84.0335 39.92L83.8135 37.78L84.9535 36.94L86.5935 31.58H89.4535L88.0135 36.26L84.6535 38.16ZM91.4707 44.64C91.4574 44.6533 91.4507 44.7 91.4507 44.78C91.4507 44.8867 91.4707 44.9933 91.5107 45.1C91.5507 45.22 91.6041 45.3333 91.6707 45.44C91.7507 45.5467 91.8307 45.6333 91.9107 45.7C92.0041 45.7667 92.0974 45.8 92.1907 45.8H100.991L106.031 29.34C106.044 29.3267 106.051 29.28 106.051 29.2C106.051 29.1067 106.031 29 105.991 28.88C105.951 28.76 105.891 28.6467 105.811 28.54C105.744 28.4333 105.664 28.3467 105.571 28.28C105.491 28.2133 105.404 28.18 105.311 28.18H96.5107L91.4707 44.64ZM99.1107 31.58H101.711L98.3907 42.4H95.7907L99.1107 31.58ZM109.517 38.16L110.397 47.74L114.237 45.7L113.797 39.6L115.897 38.4L118.657 29.34C118.67 29.3267 118.677 29.28 118.677 29.2C118.677 29.1067 118.657 29 118.617 28.88C118.577 28.76 118.517 28.6467 118.437 28.54C118.37 28.4333 118.29 28.3467 118.197 28.28C118.117 28.2133 118.03 28.18 117.937 28.18H106.837L108.077 30.64L103.437 45.8H107.097L108.897 39.92L108.677 37.78L109.817 36.94L111.457 31.58H114.317L112.877 36.26L109.517 38.16ZM130.694 33.22L132.234 28.18H119.454L121.234 31.58H122.954L118.594 45.8H122.254L126.614 31.58H127.534L127.034 33.22H130.694ZM126.762 45.8H130.722L132.642 41.8L131.122 39.2H133.802L136.822 32.68L136.802 33.18L135.822 39.86H132.502L135.082 44.1L134.902 45.8H138.862L141.242 28.18H135.182L126.762 45.8ZM144.142 28.18L145.382 30.64L140.742 45.8H149.542L151.102 40.74H147.462L146.942 42.4H145.442L149.802 28.18H144.142ZM161.831 45.8L164.231 37.96L159.431 33.32L159.971 31.58H162.531L162.091 33.02L165.011 35.44L166.871 29.34C166.884 29.3267 166.891 29.28 166.891 29.2C166.891 29.1067 166.871 29 166.831 28.88C166.791 28.76 166.731 28.6467 166.651 28.54C166.584 28.4333 166.504 28.3467 166.411 28.28C166.331 28.2133 166.244 28.18 166.151 28.18H157.331L155.111 35.44L159.931 40.08L159.211 42.4H156.611L157.191 40.54L154.291 38.14L152.291 44.64C152.278 44.6533 152.271 44.7 152.271 44.78C152.271 44.8867 152.291 44.9933 152.331 45.1C152.371 45.22 152.424 45.3333 152.491 45.44C152.571 45.5467 152.651 45.6333 152.731 45.7C152.824 45.7667 152.918 45.8 153.011 45.8H161.831Z" fill="black"/>
</svg>
