<svg width="20" height="20" viewBox="0 0 20 20" fill="none" xmlns="http://www.w3.org/2000/svg">
<path fill-rule="evenodd" clip-rule="evenodd" d="M12.0628 11.9085H12.7458H13.4288V14.5968V16.6129H9.33049L9.3306 19.1667L7.54098 18.5666L3.43028 17.2184C2.87159 17.0275 2.5 16.8985 2.5 16.8985V2.5H3.86615C3.88497 2.5 3.90315 2.50383 3.92132 2.50766C3.9354 2.51062 3.94947 2.51358 3.96383 2.51477C3.97441 2.51338 3.98437 2.51056 3.9943 2.50776C4.00807 2.50387 4.02175 2.5 4.03687 2.5H11.3797H13.4288V6.53227H12.7458H12.0628L12.0628 3.8439L11.3797 3.84401H8.19797H6.59836L9.33049 4.51613V15.2688H12.0628V14.5968V11.9085ZM15.9609 6.05716L19.1667 9.22031C19.1667 9.22031 18.9602 9.4328 18.6932 9.69552L15.9609 12.3838L14.7951 13.5214L14.795 9.89241H11.3796V9.22041V8.54841H14.795L14.7951 4.91918L15.9609 6.05716Z" fill="#2B63F1"/>
</svg>
