<svg width="98" height="28" viewBox="0 0 98 28" fill="none" xmlns="http://www.w3.org/2000/svg">
<path d="M29.7346 0.0190716C29.5941 0.0304472 29.4548 0.052766 29.3181 0.0858882C28.711 0.232834 28.1555 0.592825 27.781 1.15362C27.781 1.15362 27.5455 1.50002 27.1612 2.06607C28.3586 2.11744 29.6716 2.18235 30.7293 2.23464L30.9099 2.24356C31.6702 2.28143 32.2524 2.31041 32.479 2.31831C33.9532 2.371 35.1126 3.51425 35.1617 4.93814C35.839 4.90027 36.5793 4.85977 37.3706 4.81762C37.4628 4.81271 37.5538 4.8029 37.6431 4.78843C38.7408 4.61112 39.5929 3.73161 39.5929 2.5974C39.5929 1.37018 38.5961 0.44682 37.3712 0.375034C36.7077 0.336026 36.0704 0.296316 35.4553 0.257987C33.4742 0.13454 31.7232 0.0254284 30.0655 0.000301312C29.9559 -0.0016738 29.8433 0.00622952 29.7346 0.0190716Z" fill="black"/>
<path d="M32.4528 7.03429C31.7896 7.04773 29.8966 7.06486 29.8781 7.06502C30.5007 6.56945 30.8021 5.89001 30.8021 5.03031C30.8021 4.16068 30.4583 3.46387 29.807 2.96727C29.807 2.96727 31.8538 3.01007 32.4528 3.02522C33.5603 3.05354 34.4575 3.92258 34.4575 5.02993C34.4575 6.13736 33.5602 7.01322 32.4528 7.03429Z" fill="black"/>
<path d="M20.2397 2.68679C20.1402 2.68515 20.0391 2.69206 19.941 2.70392C19.377 2.74975 18.8333 2.99077 18.4273 3.4157C18.3367 3.51054 18.2529 3.61454 18.1773 3.72757L17.581 4.58244C17.5809 4.58244 17.581 4.58244 17.581 4.58244L17.5807 4.58304C18.9686 4.62453 21.005 4.72694 22.4265 4.79872L23.4289 4.84878C24.7079 4.90939 25.7079 5.90251 25.76 7.12619C26.6533 7.08305 27.4963 7.04617 28.0884 7.03498C28.9093 7.01935 29.6151 6.53394 29.9254 5.83274C30.0338 5.58789 30.094 5.31671 30.094 5.03001C30.094 3.92266 29.196 3.06548 28.0886 3.0253C27.8626 3.0172 27.2834 2.98842 26.5257 2.95077C24.6367 2.85691 21.6385 2.70795 20.2397 2.68679Z" fill="black"/>
<path d="M14.7072 5.61188C13.2567 4.54463 11.5227 3.94597 9.60851 3.94597L9.60836 3.94539C4.04136 3.94539 0 9.00415 0 15.9723C0 22.9417 4.04001 28 9.60667 28C13.6616 28 16.9045 25.3153 18.3678 21.1642C18.1937 21.1665 18.0208 21.169 17.8483 21.1716L17.6078 21.1751C16.2024 24.9008 13.2612 27.2917 9.60771 27.2917C4.45125 27.2917 0.709154 22.5315 0.709154 15.9721C0.709154 9.41274 4.45134 4.65248 9.60771 4.65248C11.3688 4.65248 12.9655 5.20936 14.3047 6.20248C14.4934 6.34308 14.6772 6.49423 14.856 6.65229C14.5813 7.07016 14.1592 7.71225 13.6627 8.46698C13.4888 8.30003 13.309 8.14427 13.1226 7.99972C12.115 7.22027 10.9239 6.77705 9.60745 6.77705C6.85064 6.77705 4.62954 8.68928 3.54883 11.671H2.41147C1.99985 12.9517 1.77132 14.3867 1.77132 15.9367C1.77132 17.6361 2.04826 19.195 2.53923 20.5648H3.65653C4.77416 23.38 6.94089 25.1677 9.60717 25.1677C12.066 25.1677 14.102 23.6503 15.2802 21.208C15.127 21.2098 14.976 21.2118 14.8266 21.2138L14.8233 21.2139C14.705 21.2155 14.5878 21.217 14.4715 21.2185C13.393 23.2258 11.6682 24.4594 9.60718 24.4594C6.09168 24.4594 3.54097 20.8895 3.54097 15.9722C3.54097 11.0549 6.09202 7.48499 9.60718 7.48499C10.7756 7.48499 11.8338 7.88671 12.7309 8.59436C12.9163 8.74024 13.0937 8.90027 13.2643 9.07216C12.882 9.65306 12.4731 10.2747 12.0647 10.8955C11.907 10.7015 11.7407 10.5234 11.5629 10.3706C10.9963 9.88289 10.3337 9.6099 9.60727 9.6099C8.38064 9.6099 7.33847 10.386 6.63313 11.6716H5.4355L5.43451 11.6726C4.90435 12.8564 4.60305 14.3126 4.60305 15.9372C4.60305 17.7177 4.96788 19.2911 5.59617 20.5298H6.77601C7.47611 21.6636 8.46266 22.3357 9.60693 22.3357C10.4805 22.3357 11.261 21.9418 11.8935 21.2523L11.7856 21.2535C11.4258 21.2577 11.094 21.2615 10.8029 21.2645C10.4374 21.4969 10.0366 21.6273 9.60659 21.6273C7.73297 21.6273 6.37298 19.2492 6.37298 15.9724C6.37298 12.6957 7.73289 10.3175 9.60659 10.3175C9.98597 10.3175 10.3423 10.4189 10.6722 10.6017C10.9758 10.7693 11.2554 11.0077 11.506 11.3103C10.9963 11.3093 9.68602 11.3093 9.60732 11.3093C9.52994 11.3093 9.45387 11.3185 9.37846 11.3357C9.37393 11.3367 9.36976 11.3382 9.36567 11.3397C9.36204 11.341 9.35847 11.3423 9.35475 11.3432C8.27466 11.6103 7.43629 13.5637 7.43629 15.9368C7.43629 18.3071 8.27304 20.2574 9.35012 20.5294C9.36066 20.5324 9.5309 20.565 9.60795 20.565C10.9671 20.5643 16.7517 20.48 22.0551 20.4028C26.3303 20.3406 30.2928 20.2829 31.3722 20.2772C32.7526 20.2696 33.2531 19.2376 32.6304 17.7788C32.1144 16.57 30.845 15.4488 29.0026 15.2789C28.832 15.2629 28.6628 15.2475 28.4952 15.2322L28.3144 15.2156C26.6756 15.1183 25.2264 15.0017 24.6081 14.952C24.4446 14.9389 24.339 14.9304 24.3036 14.9282C24.1087 14.916 23.9605 14.7474 23.9727 14.5525C23.9845 14.3572 24.1479 14.2074 24.3481 14.2212C24.3665 14.2225 24.8924 14.2376 24.8924 14.2376C25.4955 13.3852 26.4819 11.9874 27.5108 10.5292L27.5169 10.5205C28.1619 9.60653 28.8232 8.66923 29.4172 7.828C28.1623 7.86686 26.777 7.91165 25.6429 7.94886C25.3377 8.86788 24.4796 9.54819 23.4281 9.59495C21.6283 9.67572 19.5821 9.81215 19.3664 9.82653L19.3479 9.82776C18.9554 9.86267 18.6195 9.55906 18.5925 9.16918C18.592 9.16165 18.5927 9.15413 18.5934 9.1466C18.594 9.14095 18.5945 9.13531 18.5945 9.12966C19.2986 9.09015 21.2127 8.98346 23.3966 8.88763C24.3156 8.84717 25.0625 8.14176 25.0625 7.22274C25.0625 6.30175 24.3163 5.58883 23.3966 5.5559C23.204 5.54914 22.7061 5.52429 22.0575 5.49192C20.4953 5.41396 18.0588 5.29237 16.9079 5.27469C16.8259 5.27337 16.7412 5.27897 16.6596 5.28885C16.1196 5.33231 15.6082 5.59937 15.2627 6.05972C15.082 5.90363 14.8979 5.75249 14.7072 5.61188Z" fill="black"/>
<path d="M48.9379 1.27167L45.9979 10.8733C45.9901 10.8811 45.9862 10.9083 45.9862 10.955C45.9862 11.0172 45.9979 11.0794 46.0212 11.1417C46.0446 11.2117 46.0757 11.2778 46.1146 11.34C46.1612 11.4022 46.2079 11.4528 46.2546 11.4917C46.309 11.5306 46.3635 11.55 46.4179 11.55H51.5512L52.3796 8.86667L50.6879 7.44333L50.0346 9.56667H48.5179L50.4546 3.255H51.9712L51.6212 4.39833L53.3129 5.81L54.4912 1.94833C54.499 1.94056 54.5029 1.91333 54.5029 1.86667C54.5029 1.81222 54.4912 1.75 54.4679 1.68C54.4446 1.61 54.4096 1.54389 54.3629 1.48167C54.324 1.41944 54.2773 1.36889 54.2229 1.33C54.1762 1.29111 54.1257 1.27167 54.0712 1.27167H48.9379Z" fill="black"/>
<path d="M56.5248 7.09333L57.0381 12.6817L59.2781 11.4917L59.0215 7.93333L60.2465 7.23333L61.8565 1.94833C61.8642 1.94056 61.8681 1.91333 61.8681 1.86667C61.8681 1.81222 61.8565 1.75 61.8331 1.68C61.8098 1.61 61.7748 1.54389 61.7281 1.48167C61.6892 1.41944 61.6426 1.36889 61.5881 1.33C61.5415 1.29111 61.4909 1.27167 61.4365 1.27167H54.9615L55.6848 2.70667L52.9781 11.55H55.1131L56.1631 8.12L56.0348 6.87167L56.6998 6.38167L57.6565 3.255H59.3248L58.4848 5.985L56.5248 7.09333Z" fill="black"/>
<path d="M59.9534 11.55H62.2634L63.3834 9.21667L62.4968 7.7H64.0601L65.8218 3.89667L65.8101 4.18833L65.2384 8.085H63.3018L64.8068 10.5583L64.7018 11.55H67.0118L68.4001 1.27167H64.8651L59.9534 11.55Z" fill="black"/>
<path d="M68.0617 11.55H73.825L74.84 8.23667L72.3083 9.56667H71.6667L76.975 1.27167H71.2117L70.1967 4.59667L72.7283 3.255H73.3467L68.0617 11.55Z" fill="black"/>
<path d="M77.1769 1.27167H80.4669L78.6585 7.19833H80.1636L81.9719 1.27167H84.1069L81.6802 9.19333H79.8602L79.1369 11.55H77.0135L77.7369 9.19333H76.5469C76.4924 9.19333 76.438 9.17389 76.3836 9.135C76.3369 9.09611 76.2902 9.04556 76.2435 8.98333C76.2047 8.92111 76.1736 8.85889 76.1502 8.79667C76.1269 8.72667 76.1152 8.66056 76.1152 8.59833C76.1152 8.54389 76.1191 8.51278 76.1269 8.505L77.9002 2.70667L77.1769 1.27167Z" fill="black"/>
<path d="M49.3812 21.6767L49.6029 23.7767L53.1029 21.8167L54.7129 16.5317C54.7207 16.5239 54.7246 16.4967 54.7246 16.45C54.7246 16.3956 54.7129 16.3333 54.6896 16.2633C54.6662 16.1933 54.6312 16.1272 54.5846 16.065C54.5457 16.0028 54.499 15.9522 54.4446 15.9133C54.3979 15.8744 54.3473 15.855 54.2929 15.855H47.8179L48.5412 17.29L45.8346 26.1333H47.9696L49.0196 22.7033L48.8912 21.455L49.5562 20.965L50.5129 17.8383H52.1812L51.3412 20.5683L49.3812 21.6767Z" fill="black"/>
<path d="M53.3579 25.4567C53.3502 25.4644 53.3463 25.4917 53.3463 25.5383C53.3463 25.6006 53.3579 25.6628 53.3813 25.725C53.4046 25.795 53.4357 25.8611 53.4746 25.9233C53.5213 25.9856 53.5679 26.0361 53.6146 26.075C53.669 26.1139 53.7235 26.1333 53.7779 26.1333H58.9113L61.8513 16.5317C61.859 16.5239 61.8629 16.4967 61.8629 16.45C61.8629 16.3956 61.8513 16.3333 61.8279 16.2633C61.8046 16.1933 61.7696 16.1272 61.7229 16.065C61.684 16.0028 61.6374 15.9522 61.5829 15.9133C61.5363 15.8744 61.4857 15.855 61.4313 15.855H56.2979L53.3579 25.4567ZM57.8146 17.8383H59.3313L57.3946 24.15H55.8779L57.8146 17.8383Z" fill="black"/>
<path d="M63.8848 21.6767L64.3981 27.265L66.6381 26.075L66.3815 22.5167L67.6065 21.8167L69.2165 16.5317C69.2243 16.5239 69.2281 16.4967 69.2281 16.45C69.2281 16.3956 69.2165 16.3333 69.1931 16.2633C69.1698 16.1933 69.1348 16.1272 69.0881 16.065C69.0493 16.0028 69.0026 15.9522 68.9482 15.9133C68.9015 15.8744 68.8509 15.855 68.7965 15.855H62.3215L63.0448 17.29L60.3381 26.1333H62.4731L63.5231 22.7033L63.3948 21.455L64.0598 20.965L65.0165 17.8383H66.6848L65.8448 20.5683L63.8848 21.6767Z" fill="black"/>
<path d="M76.2384 18.795L77.1368 15.855H69.6818L70.7201 17.8383H71.7234L69.1801 26.1333H71.3151L73.8584 17.8383H74.3951L74.1034 18.795H76.2384Z" fill="black"/>
<path d="M73.9443 26.1333H76.2543L77.3743 23.8L76.4876 22.2833H78.051L79.8126 18.48L79.801 18.7717L79.2293 22.6683H77.2926L78.7976 25.1417L78.6926 26.1333H81.0026L82.391 15.855H78.856L73.9443 26.1333Z" fill="black"/>
<path d="M84.0826 15.855L84.8059 17.29L82.0992 26.1333H87.2326L88.1425 23.1817H86.0192L85.7159 24.15H84.8409L87.3842 15.855H84.0826Z" fill="black"/>
<path d="M94.4014 26.1333L95.8014 21.56L93.0014 18.8533L93.3164 17.8383H94.8098L94.5531 18.6783L96.2564 20.09L97.3414 16.5317C97.3492 16.5239 97.3531 16.4967 97.3531 16.45C97.3531 16.3956 97.3414 16.3333 97.3181 16.2633C97.2948 16.1933 97.2598 16.1272 97.2131 16.065C97.1742 16.0028 97.1276 15.9522 97.0731 15.9133C97.0264 15.8744 96.9759 15.855 96.9214 15.855H91.7764L90.4814 20.09L93.2931 22.7967L92.8731 24.15H91.3564L91.6948 23.065L90.0031 21.665L88.8364 25.4567C88.8287 25.4644 88.8248 25.4917 88.8248 25.5383C88.8248 25.6006 88.8364 25.6628 88.8598 25.725C88.8831 25.795 88.9142 25.8611 88.9531 25.9233C88.9998 25.9856 89.0464 26.0361 89.0931 26.075C89.1476 26.1139 89.202 26.1333 89.2564 26.1333H94.4014Z" fill="black"/>
</svg>
