<svg width="20" height="20" viewBox="0 0 20 20" fill="none" xmlns="http://www.w3.org/2000/svg">
<path fill-rule="evenodd" clip-rule="evenodd" d="M11.3953 9.69767C11.3953 12.8444 8.84441 15.3953 5.69767 15.3953C2.55094 15.3953 0 12.8444 0 9.69767C0 6.55094 2.55094 4 5.69767 4C8.84441 4 11.3953 6.55094 11.3953 9.69767ZM17.4419 9.69767C17.4419 12.716 16.1924 15.1628 14.6512 15.1628C13.1099 15.1628 11.8605 12.716 11.8605 9.69767C11.8605 6.67937 13.1099 4.23256 14.6512 4.23256C16.1924 4.23256 17.4419 6.67937 17.4419 9.69767ZM18.9535 14.4651C19.5315 14.4651 20 12.2786 20 9.5814C20 6.88419 19.5315 4.69767 18.9535 4.69767C18.3755 4.69767 17.907 6.88419 17.907 9.5814C17.907 12.2786 18.3755 14.4651 18.9535 14.4651Z" fill="#C6C9CF"/>
</svg>
