<svg width="23" height="23" viewBox="0 0 23 23" fill="none" xmlns="http://www.w3.org/2000/svg">
<path fill-rule="evenodd" clip-rule="evenodd" d="M15.8787 5.12125C16.4546 2.21839 17.4861 0.0351738 19.0695 0.0351738L19.0694 0.0351562C21.6365 0.0351562 22.788 5.745 22.7403 11.023C22.7403 16.325 21.5647 22.0348 19.0217 22.0348C17.4383 22.0348 16.4067 19.8757 15.8309 16.9488H17.4863C17.99 19.2279 18.6858 20.4274 19.0456 20.4274C19.4774 20.4274 20.413 18.6281 20.8689 15.2454L14.1994 15.2214C13.7675 15.2214 13.4077 14.8617 13.4077 14.4058C13.4077 13.9739 13.7916 13.6141 14.2234 13.6141L21.0368 13.638C21.0847 13.0861 21.1087 12.4864 21.1327 11.8626L14.2473 11.8387C13.8154 11.8387 13.4556 11.4789 13.4556 11.0231C13.4556 10.5912 13.8154 10.2553 14.2712 10.2314H21.1566C21.1327 9.60751 21.1088 9.00774 21.0607 8.45599L14.2713 8.43206C13.8394 8.43206 13.4796 8.07228 13.4796 7.61641C13.4796 7.18451 13.8635 6.82471 14.2953 6.82471L20.9167 6.84864C20.461 3.44193 19.5493 1.64261 19.0935 1.64261C18.7098 1.64261 18.038 2.84216 17.5342 5.12125H15.8787ZM6.63833 2.55719C7.77109 2.68052 8.58943 3.69881 8.46627 4.83161C8.34293 5.96437 7.32464 6.78272 6.19184 6.65938C5.05921 6.53605 4.24091 5.51788 4.36407 4.38513C4.48741 3.25237 5.5057 2.43402 6.63833 2.55719ZM9.83301 9.79964L11.4404 10.1355L11.4404 10.1352C11.9441 10.2313 12.28 10.735 12.1841 11.2389C12.088 11.7428 11.5843 12.0787 11.0804 11.9587L9.47301 11.6228C8.82521 11.4789 8.22542 11.1191 7.81759 10.5913C7.78447 10.5471 7.75135 10.508 7.72056 10.4716L7.72056 10.4716L7.72055 10.4716L7.72053 10.4716C7.68444 10.429 7.65156 10.3901 7.62564 10.3513L6.13825 14.6457L9.71311 20.3799C10.025 20.8837 9.88114 21.5554 9.37725 21.8673C9.18532 21.9873 8.99337 22.0353 8.80142 22.0353C8.44147 22.0353 8.08167 21.8434 7.88972 21.5315L3.4514 14.4301C2.99555 13.7104 2.87556 12.7987 3.11554 11.983L3.83531 9.51195C3.75206 9.55358 3.66081 9.5872 3.56615 9.62207C3.49716 9.64748 3.42636 9.67357 3.35553 9.7039C3.1875 9.77586 3.01965 9.89568 2.89966 10.0637L1.70012 11.791C1.50815 12.055 1.22016 12.1989 0.93232 12.1989C0.740384 12.1989 0.572538 12.1508 0.40452 12.0309C-0.0274069 11.743 -0.123298 11.1672 0.164542 10.7354L1.36409 9.00808C1.67601 8.52826 2.15583 8.16832 2.68363 7.95244C4.80868 7.13523 5.11532 7.13613 5.32923 7.13675L5.34663 7.13679L6.88204 7.23268C7.31397 7.25663 7.62589 7.37663 9.25719 9.43985C9.40126 9.63162 9.59304 9.75161 9.83301 9.79964ZM2.2998 21.938C1.74804 21.746 1.4602 21.1222 1.67608 20.5704L3.33134 15.9883L4.77088 18.2915L3.66721 21.3143C3.49936 21.7461 3.09134 22.01 2.65959 22.01C2.53978 22.01 2.41979 21.986 2.2998 21.938Z" fill="#83B3F7"/>
</svg>
