<svg width="24" height="25" viewBox="0 0 24 25" fill="none" xmlns="http://www.w3.org/2000/svg">
<path fill-rule="evenodd" clip-rule="evenodd" d="M16.8787 6.12125C17.4546 3.21839 18.4861 1.03517 20.0695 1.03517L20.0694 1.03516C22.6365 1.03516 23.788 6.745 23.7403 12.023C23.7403 17.325 22.5647 23.0348 20.0217 23.0348C18.4383 23.0348 17.4067 20.8757 16.8309 17.9488H18.4863C18.99 20.2279 19.6858 21.4274 20.0456 21.4274C20.4774 21.4274 21.413 19.6281 21.8689 16.2454L15.1994 16.2214C14.7675 16.2214 14.4077 15.8617 14.4077 15.4058C14.4077 14.9739 14.7916 14.6141 15.2234 14.6141L22.0368 14.638C22.0847 14.0861 22.1087 13.4864 22.1327 12.8626L15.2473 12.8387C14.8154 12.8387 14.4556 12.4789 14.4556 12.0231C14.4556 11.5912 14.8154 11.2553 15.2712 11.2314H22.1566C22.1327 10.6075 22.1088 10.0077 22.0607 9.45599L15.2713 9.43206C14.8394 9.43206 14.4796 9.07228 14.4796 8.61641C14.4796 8.18451 14.8635 7.82471 15.2953 7.82471L21.9167 7.84864C21.461 4.44193 20.5493 2.64261 20.0935 2.64261C19.7098 2.64261 19.038 3.84216 18.5342 6.12125H16.8787ZM7.63833 3.55719C8.77109 3.68052 9.58943 4.69881 9.46627 5.83161C9.34293 6.96437 8.32464 7.78272 7.19184 7.65938C6.05921 7.53605 5.24091 6.51788 5.36407 5.38513C5.48741 4.25237 6.5057 3.43402 7.63833 3.55719ZM10.833 10.7996L12.4404 11.1355L12.4404 11.1352C12.9441 11.2313 13.28 11.735 13.1841 12.2389C13.088 12.7428 12.5843 13.0787 12.0804 12.9587L10.473 12.6228C9.82521 12.4789 9.22542 12.1191 8.81759 11.5913C8.78447 11.5471 8.75135 11.508 8.72056 11.4716L8.72056 11.4716L8.72055 11.4716L8.72053 11.4716C8.68444 11.429 8.65156 11.3901 8.62564 11.3513L7.13825 15.6457L10.7131 21.3799C11.025 21.8837 10.8811 22.5554 10.3772 22.8673C10.1853 22.9873 9.99337 23.0353 9.80142 23.0353C9.44147 23.0353 9.08167 22.8434 8.88972 22.5315L4.4514 15.4301C3.99555 14.7104 3.87556 13.7987 4.11554 12.983L4.83531 10.512C4.75206 10.5536 4.66081 10.5872 4.56615 10.6221C4.49716 10.6475 4.42636 10.6736 4.35553 10.7039C4.1875 10.7759 4.01965 10.8957 3.89966 11.0637L2.70012 12.791C2.50815 13.055 2.22016 13.1989 1.93232 13.1989C1.74038 13.1989 1.57254 13.1508 1.40452 13.0309C0.972593 12.743 0.876702 12.1672 1.16454 11.7354L2.36409 10.0081C2.67601 9.52826 3.15583 9.16832 3.68363 8.95244C5.80868 8.13523 6.11532 8.13613 6.32923 8.13675L6.34663 8.13679L7.88204 8.23268C8.31397 8.25663 8.62589 8.37663 10.2572 10.4398C10.4013 10.6316 10.593 10.7516 10.833 10.7996ZM3.2998 22.938C2.74804 22.746 2.4602 22.1222 2.67608 21.5704L4.33134 16.9883L5.77088 19.2915L4.66721 22.3143C4.49936 22.7461 4.09134 23.01 3.65959 23.01C3.53978 23.01 3.41979 22.986 3.2998 22.938Z" fill="#FFAB9C"/>
</svg>
