<svg width="20" height="20" viewBox="0 0 20 20" fill="none" xmlns="http://www.w3.org/2000/svg">
<path d="M20 10.1446C20 8.91566 19.0143 7.93976 17.8136 7.93976C17.2222 7.93976 16.6846 8.1747 16.2903 8.55422C14.7849 7.46988 12.724 6.76506 10.4301 6.6747L11.4337 1.93976L14.6953 2.64458C14.7312 3.4759 15.4122 4.14458 16.2545 4.14458C17.1147 4.14458 17.8136 3.43976 17.8136 2.57229C17.8136 1.70482 17.1147 1 16.2545 1C15.6452 1 15.1075 1.36145 14.8566 1.88554L11.2186 1.10843C11.1111 1.09036 11.0036 1.10843 10.9319 1.16265C10.8423 1.21687 10.7885 1.30723 10.7706 1.41566L9.6595 6.69277C7.32975 6.76506 5.23298 7.46988 3.70968 8.57229C3.31541 8.19277 2.77778 7.95783 2.18638 7.95783C0.967743 7.95783 0 8.95181 0 10.1626C0 11.0663 0.537635 11.8253 1.29032 12.1687C1.25448 12.3855 1.23656 12.6024 1.23656 12.8373C1.23656 16.2349 5.16129 19 10 19C14.8387 19 18.7634 16.253 18.7634 12.8373C18.7634 12.6205 18.7455 12.3855 18.7097 12.1687C19.4624 11.8253 20 11.0482 20 10.1446ZM4.98208 11.7169C4.98208 10.8494 5.681 10.1446 6.54122 10.1446C7.40143 10.1446 8.10036 10.8494 8.10036 11.7169C8.10036 12.5843 7.40143 13.2892 6.54122 13.2892C5.681 13.3072 4.98208 12.5843 4.98208 11.7169ZM13.7097 15.8916C12.6344 16.9759 10.5914 17.0482 10 17.0482C9.39068 17.0482 7.34767 16.9578 6.29032 15.8916C6.12903 15.7289 6.12903 15.4759 6.29032 15.3133C6.45161 15.1506 6.70251 15.1506 6.8638 15.3133C7.5448 16 8.97849 16.2349 10 16.2349C11.0215 16.2349 12.4731 16 13.1362 15.3133C13.2975 15.1506 13.5484 15.1506 13.7097 15.3133C13.853 15.4759 13.853 15.7289 13.7097 15.8916ZM13.4229 13.3072C12.5627 13.3072 11.8638 12.6024 11.8638 11.7349C11.8638 10.8675 12.5627 10.1626 13.4229 10.1626C14.2832 10.1626 14.9821 10.8675 14.9821 11.7349C14.9821 12.5843 14.2832 13.3072 13.4229 13.3072Z" fill="#C6C9CF"/>
</svg>
