<svg width="20" height="20" viewBox="0 0 20 20" fill="none" xmlns="http://www.w3.org/2000/svg">
<path fill-rule="evenodd" clip-rule="evenodd" d="M10 19.2025C4.93743 19.2025 0.833374 15.0984 0.833374 10.0358C0.833374 4.9732 4.93743 0.869141 10 0.869141C15.0626 0.869141 19.1667 4.9732 19.1667 10.0358C19.1667 15.0984 15.0626 19.2025 10 19.2025ZM16.1663 14.3063C17.0072 13.0944 17.5 11.6227 17.5 10.0358C17.5 5.89367 14.1422 2.53581 10 2.53581C5.8579 2.53581 2.50004 5.89367 2.50004 10.0358C2.50004 11.6227 2.99286 13.0944 3.8338 14.3063C4.77167 13.0675 6.97554 12.5358 10 12.5358C13.0245 12.5358 15.2284 13.0675 16.1663 14.3063ZM14.9706 15.6523C14.7267 14.7753 12.9745 14.2025 10 14.2025C7.02556 14.2025 5.27338 14.7753 5.02947 15.6523C6.35279 16.8243 8.09332 17.5358 10 17.5358C11.9068 17.5358 13.6473 16.8243 14.9706 15.6523ZM10 5.03581C7.98262 5.03581 6.66671 6.49894 6.66671 8.36914C6.66671 11.2253 8.13409 12.5358 10 12.5358C11.8484 12.5358 13.3334 11.2688 13.3334 8.53581C13.3334 6.63712 12.0119 5.03581 10 5.03581ZM8.33337 8.36914C8.33337 10.2602 9.01522 10.8691 10 10.8691C10.9815 10.8691 11.6667 10.2845 11.6667 8.53581C11.6667 7.49449 11.0131 6.70247 10 6.70247C8.94482 6.70247 8.33337 7.38233 8.33337 8.36914Z" fill="#A8C8FD"/>
</svg>
