<svg width="20" height="20" viewBox="0 0 20 20" fill="none" xmlns="http://www.w3.org/2000/svg">
<path d="M3.09992 9.02697C7.39487 7.05126 10.2589 5.74875 11.6919 5.11944C15.7834 3.32264 16.6335 3.01052 17.1877 3.0001C17.3095 2.99794 17.582 3.02983 17.7586 3.18106C17.9076 3.30876 17.9486 3.48125 17.9683 3.60232C17.9879 3.72339 18.0123 3.99919 17.9929 4.21469C17.7712 6.67437 16.8118 12.6434 16.3237 15.3983C16.1172 16.564 15.7105 16.9548 15.3168 16.9931C14.4613 17.0762 13.8116 16.3961 12.9829 15.8226C11.6862 14.9251 10.9537 14.3664 9.69503 13.4907C8.24042 12.4786 9.18338 11.9224 10.0124 11.0133C10.2293 10.7754 13.999 7.15516 14.0719 6.82675C14.0811 6.78568 14.0895 6.63258 14.0034 6.55173C13.9172 6.47089 13.7901 6.49853 13.6983 6.52052C13.5683 6.55169 11.4968 7.9973 7.48389 10.8573C6.89591 11.2836 6.36333 11.4913 5.88616 11.4805C5.36012 11.4685 4.34822 11.1664 3.59598 10.9083C2.67333 10.5916 1.94002 10.4242 2.00388 9.88638C2.03714 9.60627 2.40248 9.3198 3.09992 9.02697Z" fill="#C6C9CF"/>
</svg>
