<svg width="20" height="20" viewBox="0 0 20 20" fill="none" xmlns="http://www.w3.org/2000/svg">
<path d="M19 4.77577C18.3306 5.07692 17.6174 5.27654 16.8737 5.37346C17.6388 4.905 18.2226 4.16885 18.4971 3.28154C17.7839 3.71769 16.9964 4.02577 16.1571 4.19769C15.4799 3.45808 14.5146 3 13.4616 3C11.4186 3 9.77387 4.70077 9.77387 6.78577C9.77387 7.08577 9.79862 7.37423 9.85938 7.64885C6.7915 7.49538 4.07687 5.98731 2.25325 3.69C1.93487 4.25654 1.74813 4.905 1.74813 5.60308C1.74813 6.91385 2.40625 8.07577 3.38725 8.74846C2.79437 8.73692 2.21275 8.56038 1.72 8.28231C1.72 8.29385 1.72 8.30885 1.72 8.32385C1.72 10.1631 2.99912 11.6908 4.6765 12.0427C4.37612 12.1269 4.04875 12.1673 3.709 12.1673C3.47275 12.1673 3.23425 12.1535 3.01038 12.1027C3.4885 13.6015 4.84525 14.7035 6.4585 14.7392C5.203 15.7465 3.60888 16.3535 1.88313 16.3535C1.5805 16.3535 1.29025 16.3396 1 16.3015C2.63462 17.3827 4.57188 18 6.661 18C13.4515 18 17.164 12.2308 17.164 7.23C17.164 7.06269 17.1584 6.90115 17.1505 6.74077C17.8829 6.20769 18.4982 5.54192 19 4.77577Z" fill="#C6C9CF"/>
</svg>
