<svg width="198" height="200" viewBox="0 0 198 200" fill="none" xmlns="http://www.w3.org/2000/svg">
<path fill-rule="evenodd" clip-rule="evenodd" d="M90.4305 24.2692L91.7965 16.3098L86.0104 10.6727C85.7366 10.4066 85.6392 10.0091 85.7567 9.64551C85.8743 9.28195 86.1884 9.01741 86.5658 8.96327L94.5577 7.80147L98.1297 0.558481C98.2983 0.216581 98.6479 0 99.0285 0C99.409 0 99.7587 0.216597 99.9273 0.558481L103.504 7.80147L111.497 8.96327C111.876 9.01899 112.189 9.28196 112.306 9.64551C112.426 10.0075 112.327 10.4066 112.054 10.6727L106.27 16.3098L107.635 24.2692C107.701 24.6452 107.545 25.0257 107.237 25.25C106.928 25.4743 106.519 25.5037 106.181 25.3258L99.0318 21.5682L91.8847 25.3258C91.5474 25.5037 91.1374 25.4743 90.8296 25.25C90.5202 25.0257 90.3655 24.6451 90.4305 24.2692ZM101.864 174.553C102.663 172.591 103.804 170.503 105.439 168.476C143.674 165.215 173.794 133.058 173.79 93.9948C173.79 80.7032 170.256 67.6667 163.578 56.2638C177.881 32.2949 156.615 15.2668 156.613 15.2668C143.659 34.9182 157.631 52.749 161.506 57.0757L161.491 57.0819C168.086 68.2154 171.571 80.9799 171.571 93.9946C171.571 119.112 158.739 141.285 139.287 154.31C123.637 154.236 112.131 158.015 105.035 165.561C104.792 165.82 104.557 166.079 104.329 166.341C102.578 166.468 100.812 166.536 99.0277 166.536C97.1713 166.536 95.3304 166.465 93.5095 166.328C93.2851 166.072 93.0546 165.816 92.8164 165.561C85.7421 158.037 74.2648 154.254 58.7115 154.308C39.2332 141.283 26.3824 119.11 26.3824 93.993C26.3824 80.9799 29.8678 68.2155 36.4641 57.0803L36.4502 57.0726C40.3238 52.7471 54.2977 34.9167 41.3431 15.2637C41.3431 15.2637 20.0767 32.2914 34.3786 56.2607C27.6987 67.6636 24.1653 80.7017 24.1653 93.9932C24.1653 113.898 31.9034 132.634 45.9517 146.748C58.5118 159.367 74.8108 166.938 92.406 168.46C94.035 170.478 95.1752 172.555 95.975 174.509C88.9625 172.131 69.2861 167.561 56.5126 185.392C56.5126 185.392 79.7746 199.004 97.0066 177.567C97.579 179.717 97.7631 181.53 97.8157 182.667C97.8137 182.734 97.8116 182.8 97.81 182.863C97.8092 182.896 97.8085 182.929 97.808 182.96C94.7202 184.371 86.0138 189.34 87.5607 200C87.5607 200 97.8143 197.532 98.9838 187.385C100.153 197.532 110.407 200 110.407 200C111.971 189.217 103.043 184.256 100.053 182.912C100.052 182.873 100.051 182.832 100.049 182.79L100.048 182.739L100.045 182.668C100.098 181.513 100.286 179.662 100.88 177.47C118.117 199.045 141.45 185.393 141.45 185.393C128.6 167.459 108.769 172.187 101.865 174.552L101.864 174.553ZM135.667 156.581C127.277 161.512 117.816 164.802 107.723 166.013C113.876 160.196 123.257 157.031 135.667 156.581ZM62.3498 156.584C74.6671 157.055 83.9798 160.211 90.1075 165.987C80.0832 164.756 70.6882 161.477 62.3498 156.584ZM98.9283 176.132C98.2322 173.83 97.1168 171.242 95.33 168.663C96.5583 168.722 97.7929 168.753 99.0304 168.753C100.202 168.753 101.363 168.722 102.522 168.67C100.738 171.245 99.6245 173.832 98.9283 176.132ZM22.1428 80.299C22.1428 80.299 36.5516 55.1927 16.0277 37.5317C16.0262 37.5317 -0.571472 60.8587 22.1428 80.299ZM21.2756 107.883C21.2756 107.883 26.2707 79.3687 0.958849 69.7559C0.958849 69.7559 -6.70037 97.3401 21.2756 107.883ZM31.7307 135.047C31.7307 135.047 27.9839 106.343 0.956421 104.727L0.956426 104.727C0.958924 104.801 1.92254 133.34 31.7307 135.047ZM47.7975 154.775C47.7975 154.775 34.2953 129.169 8.39569 137.059C8.39569 137.059 19.2216 163.56 47.7975 154.775ZM28.0991 164.412C28.0991 164.412 46.9461 185.96 71.1198 168.37C71.1198 168.37 50.0328 148.537 28.0991 164.412ZM176.685 107.883C204.661 97.3401 197.002 69.7559 197.002 69.7559C171.69 79.3687 176.685 107.883 176.685 107.883ZM181.937 37.5317C161.413 55.1907 175.822 80.299 175.822 80.299C198.535 60.8595 181.937 37.5317 181.937 37.5317ZM166.23 135.047C196.078 133.338 197.005 104.727 197.005 104.727C169.977 106.343 166.23 135.047 166.23 135.047ZM150.164 154.775C178.74 163.56 189.565 137.059 189.565 137.059C163.666 129.169 150.164 154.775 150.164 154.775ZM126.841 168.37C151.015 185.96 169.862 164.412 169.862 164.412C147.929 148.537 126.841 168.37 126.841 168.37ZM67.5755 22.6311L66.8499 26.8607C66.8159 27.0603 66.8979 27.2629 67.0619 27.382C67.2259 27.5012 67.444 27.5166 67.6234 27.4223L71.4213 25.4251L75.2191 27.4223C75.3986 27.5166 75.6167 27.5012 75.7807 27.382C75.9447 27.2629 76.0267 27.0603 75.9927 26.8607L75.2671 22.6311L78.3394 19.6361C78.4849 19.4954 78.5375 19.2834 78.474 19.0901C78.4122 18.8967 78.2451 18.7559 78.044 18.7281L73.7974 18.1108L71.8976 14.2619C71.8079 14.0809 71.6238 13.9648 71.4196 13.9648C71.217 13.9648 71.0313 14.0793 70.9416 14.2619L69.0419 18.1108L64.7953 18.7281C64.5942 18.7574 64.4286 18.8982 64.3652 19.0901C64.3018 19.2834 64.3559 19.4938 64.4998 19.6361L67.5755 22.6311ZM121.97 26.8607L122.695 22.6311L119.621 19.6361C119.477 19.4938 119.423 19.2819 119.486 19.0901C119.55 18.8967 119.715 18.7574 119.916 18.7281L124.163 18.1108L126.064 14.2619C126.154 14.0809 126.34 13.9648 126.542 13.9648C126.745 13.9648 126.931 14.0793 127.02 14.2619L128.919 18.1108L133.165 18.7281C133.366 18.7559 133.533 18.8967 133.597 19.0901C133.659 19.2834 133.606 19.4954 133.461 19.6361L130.388 22.6311L131.114 26.8607C131.148 27.0603 131.067 27.2629 130.902 27.382C130.736 27.5012 130.52 27.5166 130.339 27.4223L126.541 25.4251L122.743 27.4223C122.564 27.5166 122.345 27.5012 122.181 27.382C122.019 27.2629 121.936 27.0603 121.97 26.8607ZM33.0969 94.463C33.0969 95.6155 34.0344 96.553 35.1869 96.553C36.3394 96.553 37.2769 95.6155 37.2769 94.463C37.2769 93.3105 36.3394 92.373 35.1869 92.373C34.0344 92.3715 33.0969 93.3105 33.0969 94.463ZM162.857 92.2925C164.01 92.2925 164.947 93.2299 164.947 94.3825C164.947 95.5349 164.01 96.4724 162.857 96.4724C161.705 96.4724 160.767 95.5349 160.767 94.3825C160.767 93.23 161.705 92.2925 162.857 92.2925ZM53.9163 141.682C55.0688 141.682 56.0063 140.745 56.0063 139.592C56.0063 138.44 55.0688 137.502 53.9163 137.502C52.7638 137.502 51.8263 138.44 51.8263 139.592C51.8263 140.745 52.7638 141.682 53.9163 141.682ZM146.279 139.528C146.279 140.682 145.34 141.62 144.188 141.62C143.034 141.62 142.096 140.682 142.096 139.528C142.096 138.374 143.034 137.437 144.188 137.437C145.342 137.437 146.279 138.376 146.279 139.528ZM40.4632 121.922C41.6158 121.922 42.5532 120.984 42.5532 119.832C42.5532 118.679 41.6157 117.742 40.4632 117.742C39.3107 117.742 38.3733 118.679 38.3733 119.832C38.3733 120.984 39.3107 121.922 40.4632 121.922ZM155.491 69.0138C155.491 67.8613 156.428 66.9238 157.581 66.9238C158.735 66.9238 159.671 67.8613 159.671 69.0138C159.671 70.1663 158.734 71.1038 157.581 71.1038C156.429 71.1038 155.491 70.1663 155.491 69.0138ZM42.3008 69.6046C42.3008 68.4521 41.3633 67.5146 40.2108 67.5146C39.0583 67.5146 38.1209 68.4521 38.1209 69.6046C38.1209 70.7571 39.0584 71.6946 40.2108 71.6946C41.3634 71.6946 42.3008 70.7571 42.3008 69.6046ZM155.903 118.426C156.232 117.65 156.989 117.148 157.83 117.148C158.11 117.148 158.384 117.204 158.643 117.311C159.705 117.761 160.204 118.991 159.755 120.052C159.425 120.829 158.669 121.328 157.827 121.328C157.547 121.328 157.274 121.274 157.015 121.164C155.954 120.716 155.454 119.488 155.903 118.426ZM75.3179 98.2525C78.8358 107.032 84.4266 112.618 91.8629 114.686C91.6556 118.317 90.1101 127.087 80.2869 130.897C77.9247 131.815 76.2862 133.863 75.8747 136.292C75.0177 137.033 74.4716 138.123 74.4716 139.342V143.931C74.4716 145.744 75.9474 147.22 77.7605 147.22H118.064C119.878 147.22 121.353 145.744 121.353 143.931V139.342C121.353 138.163 120.843 137.105 120.034 136.367C119.874 133.994 118.318 131.906 116.058 131.094C105.761 127.392 104.168 118.376 103.957 114.686C111.395 112.62 116.986 107.032 120.504 98.2527C130.819 92.7082 134.049 79.2385 135.058 71.5765C135.282 69.864 134.758 68.1391 133.624 66.8427C132.487 65.5433 130.842 64.7991 129.116 64.7991H124.679C124.506 61.6417 124.262 59.6246 124.237 59.425L123.994 57.482H122.035L100.184 57.4805H71.8263L71.5835 59.4235C71.5587 59.623 71.3143 61.6403 71.141 64.7976H66.7059C64.9794 64.7976 63.335 65.5432 62.1979 66.8412C61.0608 68.1376 60.5395 69.864 60.7638 71.5765C61.7694 79.2373 64.9993 92.7067 75.3163 98.2527L75.3179 98.2525ZM78.5063 139.745V139.355H78.9054C78.8992 139.57 78.7244 139.745 78.5063 139.745ZM117.325 139.355V139.745C117.109 139.745 116.932 139.57 116.924 139.355H117.325ZM116.923 139.355V142.783H78.9088V139.355H116.923ZM123.949 84.6986C124.741 79.0813 124.907 73.6284 124.839 69.2333H129.119C129.568 69.2333 129.997 69.4266 130.292 69.7639C130.588 70.1011 130.724 70.5528 130.665 70.9984C129.302 81.3664 126.016 87.3762 122.806 90.8573C123.261 88.9127 123.645 86.8598 123.949 84.6986ZM75.8 61.9162H120.029C120.768 70.7279 122.45 106.632 101.31 110.755L99.6422 111.079L99.5231 112.773C99.5122 112.941 98.5315 129.499 114.562 135.264C115.194 135.491 115.618 136.094 115.618 136.766V137.134H80.2337C80.3605 136.187 80.9824 135.381 81.8936 135.028C97.2706 129.063 96.313 112.938 96.3023 112.775L96.1832 111.081L94.5156 110.756C73.4008 106.632 75.0638 70.7256 75.7984 61.9139L75.8 61.9162ZM65.5373 69.7639C65.8327 69.4267 66.2597 69.2333 66.7099 69.2333H70.9905C70.9209 73.6301 71.088 79.0814 71.8801 84.6987C72.1848 86.8598 72.5685 88.9129 73.0233 90.8589C69.8133 87.3797 66.526 81.3697 65.1645 71C65.1057 70.5514 65.2418 70.1012 65.5373 69.7639ZM115.472 73.2006L113.254 73.1727C113.285 70.7625 113.258 68.4405 113.235 66.3938L113.234 66.2113L115.452 66.1865L115.454 66.3691C115.477 68.4296 115.502 70.7656 115.472 73.2006ZM115.285 77.0693L113.071 76.9409C112.234 91.4194 108.322 100.398 101.107 104.391L102.18 106.33C110.115 101.942 114.402 92.3691 115.285 77.0693ZM83.8102 54.2047H79.1153L74.458 40.7691L78.7648 42.248C78.8207 42.2666 84.9671 44.2931 89.9931 41.7746C92.6895 40.4242 94.6433 37.9457 95.802 34.4108L97.909 27.9785L100.018 34.4108C101.178 37.9581 103.141 40.4395 105.85 41.7869C110.901 44.3003 116.963 42.2772 117.054 42.2466L117.055 42.2464L121.362 40.7674L116.708 54.2047H112.015L114.403 47.3114C111.537 47.6533 107.572 47.5976 103.877 45.7598C101.432 44.5424 99.4362 42.7262 97.9124 40.333C96.3888 42.7261 94.3932 44.5423 91.9474 45.7598C88.2516 47.5976 84.2898 47.6518 81.4217 47.3114L83.8102 54.2047Z" fill="#007ACC"/>
</svg>
