<svg width="198" height="200" viewBox="0 0 198 200" fill="none" xmlns="http://www.w3.org/2000/svg">
<path fill-rule="evenodd" clip-rule="evenodd" d="M98.1525 0.558468C98.3212 0.216591 98.6692 0 99.0513 0C99.4334 0 99.7815 0.216576 99.9501 0.558468L103.525 7.7997L111.518 8.96146C111.897 9.01715 112.21 9.28013 112.327 9.64369C112.445 10.0072 112.348 10.4048 112.074 10.6709L106.29 16.3078L107.656 24.267C107.721 24.643 107.566 25.0235 107.258 25.2478C106.949 25.4721 106.54 25.5015 106.202 25.3236L99.0515 21.5661L91.9029 25.3236C91.5657 25.5015 91.1558 25.4706 90.8479 25.2478C90.5385 25.0235 90.3854 24.643 90.4488 24.267L91.8132 16.3078L86.0305 10.6709C85.7567 10.4048 85.6593 10.0057 85.7768 9.64369C85.8944 9.28015 86.2084 9.01564 86.5859 8.96146L94.5792 7.7997L98.1525 0.558468ZM34.3965 56.2639C27.7183 67.6656 24.191 80.7026 24.191 93.9933C24.191 113.898 31.9273 132.633 45.9769 146.747C58.5363 159.367 74.8362 166.944 92.4327 168.465C94.058 170.48 95.1985 172.556 95.9979 174.508C88.9869 172.13 69.309 167.559 56.5348 185.39C56.5348 185.392 79.7979 199.007 97.0266 177.567C97.6017 179.724 97.7828 181.541 97.834 182.678C97.8318 182.741 97.83 182.801 97.8285 182.861L97.8263 182.959C94.7344 184.373 86.0327 189.347 87.5769 200C87.5769 200 97.8251 197.534 99.0001 187.395C100.175 197.534 110.423 200 110.423 200C111.985 189.224 103.065 184.26 100.07 182.912C100.068 182.837 100.066 182.759 100.063 182.678C100.113 181.525 100.295 179.668 100.892 177.466C118.129 199.049 141.465 185.392 141.465 185.39C128.615 167.452 108.778 172.185 101.878 174.55C102.677 172.593 103.821 170.506 105.457 168.478C143.692 165.219 173.811 133.058 173.809 93.9933C173.809 80.7025 170.281 67.6629 163.602 56.2605C177.907 32.2914 156.633 15.2637 156.632 15.2637C143.677 34.9149 157.652 52.7484 161.526 57.0741L161.511 57.0828C168.107 68.2161 171.593 80.9802 171.593 93.9947C171.593 119.105 158.765 141.277 139.319 154.303C139.156 154.302 138.994 154.302 138.832 154.302C123.443 154.302 112.082 158.088 105.059 165.558C104.814 165.818 104.578 166.079 104.349 166.342C102.599 166.469 100.832 166.534 99.0497 166.534C97.1949 166.534 95.3561 166.464 93.5359 166.327C93.3111 166.069 93.0788 165.812 92.8385 165.556C85.7622 158.029 74.2828 154.248 58.7198 154.3C39.25 141.274 26.4077 119.104 26.4077 93.9947C26.4077 80.9802 29.8931 68.2161 36.4876 57.0828L36.4713 57.0731C40.3465 52.7456 54.3177 34.9134 41.3644 15.2637C41.3644 15.2637 20.0879 32.293 34.3965 56.2639ZM90.1388 165.991C84.0099 160.207 74.6878 157.056 62.357 156.582C70.702 161.479 80.1074 164.76 90.1388 165.991ZM98.9485 176.122C98.2532 173.822 97.1371 171.236 95.353 168.661C96.5805 168.72 97.8136 168.75 99.0515 168.75L99.0526 168.75C100.221 168.75 101.383 168.723 102.539 168.67C100.758 171.242 99.6432 173.825 98.9485 176.122ZM107.735 166.017C117.837 164.806 127.307 161.511 135.703 156.575C123.275 157.021 113.889 160.191 107.735 166.017ZM22.1602 80.2986C22.1602 80.2986 36.5686 55.1929 16.0453 37.5324C16.0453 37.5324 -0.551922 60.8588 22.1602 80.2986ZM21.2969 107.881C21.2969 107.881 26.2919 79.3691 0.980676 69.7549C0.980676 69.7549 -6.67835 97.3385 21.2969 107.881ZM31.7518 135.045C31.7518 135.045 28.0067 106.341 0.97986 104.725C0.978313 104.723 1.90492 133.335 31.7518 135.045ZM47.8184 154.77C47.8184 154.77 34.3165 129.165 8.41753 137.055C8.41753 137.055 19.2431 163.555 47.8184 154.77ZM71.14 168.365C71.14 168.365 50.0535 148.533 28.1204 164.408C28.1204 164.408 46.967 185.955 71.14 168.365ZM176.703 107.881C176.703 107.881 171.708 79.3691 197.019 69.7549C197.019 69.7549 204.678 97.3385 176.703 107.881ZM175.84 80.2986C175.84 80.2986 161.431 55.1929 181.955 37.5324C181.955 37.5324 198.552 60.8588 175.84 80.2986ZM166.248 135.045C166.248 135.045 169.993 106.341 197.02 104.725C197.022 104.723 196.095 133.335 166.248 135.045ZM150.182 154.77C150.182 154.77 163.684 129.165 189.583 137.055C189.584 137.055 178.757 163.555 150.182 154.77ZM126.86 168.365C126.86 168.365 147.946 148.533 169.88 164.408C169.88 164.408 151.033 185.955 126.86 168.365ZM71.4382 13.9658C71.6424 13.9658 71.8265 14.0818 71.9162 14.2628L73.8141 18.1117L78.0606 18.7289C78.2617 18.7568 78.4272 18.8975 78.4906 19.0909C78.5541 19.2843 78.5015 19.4962 78.356 19.637L75.2838 22.6319L76.0093 26.8614C76.0434 27.0609 75.9614 27.2636 75.7974 27.3827C75.6334 27.5018 75.4153 27.5173 75.2358 27.4229L71.4381 25.4258L67.6403 27.4229C67.4609 27.5173 67.2427 27.5018 67.0788 27.3827C66.9148 27.2636 66.8328 27.0609 66.8668 26.8614L67.5923 22.6319L64.5185 19.637C64.3747 19.4946 64.3221 19.2843 64.384 19.0909C64.4474 18.8991 64.6129 18.7583 64.814 18.7289L69.0605 18.1117L70.9602 14.2628C71.0499 14.0803 71.2355 13.9658 71.4382 13.9658ZM126.084 14.2628C126.174 14.0818 126.358 13.9658 126.562 13.9658C126.764 13.9658 126.95 14.0803 127.04 14.2628L128.939 18.1117L133.186 18.7289C133.387 18.7583 133.553 18.8991 133.616 19.0909C133.678 19.2843 133.625 19.4946 133.48 19.637L130.406 22.6319L131.132 26.8614C131.166 27.0609 131.084 27.2636 130.92 27.3827C130.756 27.5018 130.538 27.5173 130.358 27.4229L126.56 25.4258L122.763 27.4229C122.583 27.5173 122.365 27.5018 122.201 27.3827C122.037 27.2636 121.955 27.0609 121.989 26.8614L122.715 22.6319L119.642 19.637C119.497 19.4962 119.444 19.2843 119.508 19.0909C119.571 18.8975 119.738 18.7568 119.938 18.7289L124.184 18.1117L126.084 14.2628ZM35.2091 96.5548C34.0566 96.5548 33.1191 95.6174 33.1191 94.4649C33.1191 93.3125 34.0566 92.375 35.2091 92.375C36.3615 92.375 37.299 93.3125 37.299 94.4649C37.3005 95.6174 36.3631 96.5548 35.2091 96.5548ZM162.87 96.4721C161.718 96.4721 160.78 95.5346 160.78 94.3821C160.78 93.2296 161.718 92.2922 162.87 92.2922C164.023 92.2922 164.96 93.2297 164.96 94.3821C164.962 95.5331 164.023 96.4721 162.87 96.4721ZM53.9369 141.678C52.7844 141.678 51.847 140.74 51.847 139.588C51.847 138.435 52.7844 137.498 53.9369 137.498C55.0894 137.498 56.0268 138.435 56.0268 139.588C56.0268 140.74 55.0894 141.678 53.9369 141.678ZM144.206 141.622C143.053 141.622 142.114 140.685 142.114 139.531C142.114 138.378 143.052 137.439 144.206 137.439C145.358 137.439 146.297 138.377 146.297 139.531C146.296 140.683 145.358 141.622 144.206 141.622ZM40.4841 121.92C39.3316 121.92 38.3942 120.983 38.3942 119.83C38.3942 118.678 39.3316 117.74 40.4841 117.74C41.6366 117.74 42.574 118.678 42.574 119.83C42.574 120.983 41.6365 121.92 40.4841 121.92ZM157.599 71.1066C156.447 71.1066 155.509 70.1691 155.509 69.0167C155.509 67.8642 156.447 66.9268 157.599 66.9268C158.752 66.9268 159.689 67.8642 159.689 69.0167C159.689 70.1692 158.752 71.1066 157.599 71.1066ZM40.2307 71.6974C39.0782 71.6974 38.1407 70.76 38.1407 69.6075C38.1407 68.455 39.0782 67.5176 40.2307 67.5176C41.3831 67.5176 42.3206 68.455 42.3206 69.6075C42.3206 70.7584 41.3816 71.6974 40.2307 71.6974ZM157.849 121.334C157.569 121.334 157.295 121.279 157.036 121.169C155.974 120.72 155.476 119.492 155.923 118.429C156.252 117.653 157.009 117.151 157.85 117.151C158.13 117.151 158.404 117.207 158.664 117.317C159.725 117.765 160.225 118.995 159.776 120.058C159.447 120.833 158.69 121.334 157.849 121.334ZM118.575 126.952C119.304 127.337 120.127 127.54 120.951 127.54C122.037 127.54 123.075 127.203 123.954 126.567C125.538 125.414 126.316 123.501 125.985 121.572L122.248 99.7769L138.082 84.3412C139.485 82.9736 139.979 80.9672 139.374 79.1062C138.771 77.2437 137.19 75.9118 135.251 75.6302L113.368 72.4513L103.582 52.6225C102.716 50.8667 100.962 49.7761 99.0032 49.7761C97.0449 49.7761 95.2891 50.8667 94.4228 52.6225L84.6368 72.4513L62.7535 75.6302C60.8168 75.9118 59.2373 77.2437 58.6309 79.1062C58.026 80.9673 58.5211 82.9737 59.9242 84.3412L75.7586 99.7753L72.0212 121.57C71.6902 123.499 72.4683 125.414 74.0523 126.564C74.931 127.203 75.969 127.54 77.055 127.54C77.8795 127.54 78.7009 127.337 79.4311 126.954L99.0032 116.663L118.575 126.952ZM120.637 123.028L99.4433 111.885V90.8719L120.72 123.064C120.692 123.054 120.664 123.041 120.637 123.028ZM77.3658 123.026L98.1129 112.12V90.9094L77.2497 123.074C77.2742 123.066 77.2983 123.057 77.322 123.047C77.3367 123.04 77.3514 123.033 77.3658 123.026ZM76.4743 121.826L96.8928 90.3467L80.461 98.581L76.4743 121.826ZM79.733 97.4578L96.8311 88.8896L62.8811 80.9754C62.9147 81.0449 62.9605 81.1093 63.0181 81.1653L79.733 97.4578ZM64.1574 79.9077L96.881 87.5345L87.0877 76.576L64.1574 79.9077ZM98.1129 86.9165L88.0176 75.6189L98.1129 55.1621V86.9165ZM99.4433 86.9627V54.3766C99.5077 54.4335 99.5618 54.5034 99.6018 54.5839L109.967 75.5839L99.4433 86.9627ZM100.733 87.5269L133.818 79.9038L110.868 76.5694L100.733 87.5269ZM134.984 81.1638C135.042 81.1066 135.089 81.041 135.122 80.9701L101.084 88.8118L118.415 97.3148L134.984 81.1638ZM117.593 98.8881L121.538 121.887L100.935 90.7153L117.593 98.8881Z" fill="#4CAF4F"/>
</svg>
