<svg width="198" height="200" viewBox="0 0 198 200" fill="none" xmlns="http://www.w3.org/2000/svg">
<path fill-rule="evenodd" clip-rule="evenodd" d="M98.1311 0.55847C98.2997 0.216592 98.6478 0 99.0299 0C99.412 0 99.7601 0.216576 99.9287 0.55847L103.504 7.79973L111.497 8.9615C111.876 9.01719 112.188 9.28018 112.306 9.64373C112.424 10.0073 112.326 10.4048 112.052 10.6709L106.268 16.3079L107.634 24.2672C107.699 24.6431 107.545 25.0236 107.237 25.2479C106.927 25.4722 106.519 25.5016 106.18 25.3237L99.0301 21.5662L91.8815 25.3237C91.5443 25.5016 91.1343 25.4707 90.8265 25.2479C90.5171 25.0236 90.3639 24.6431 90.4274 24.2672L91.7918 16.3079L86.009 10.6725C85.7352 10.4064 85.6378 10.0073 85.7553 9.64531C85.8729 9.28177 86.1869 9.01726 86.5644 8.96308L94.5577 7.80131L98.1311 0.55847ZM34.3746 56.2674C27.6965 67.669 24.1693 80.706 24.1693 93.9966C24.1693 113.901 31.9056 132.636 45.9552 146.751C58.5147 159.371 74.8146 166.947 92.4112 168.469C94.0365 170.483 95.1769 172.559 95.9764 174.511C88.9652 172.133 69.2873 167.562 56.5132 185.394C56.5132 185.394 79.7763 199.008 97.0051 177.57C97.5803 179.727 97.7613 181.545 97.8126 182.681C97.8092 182.778 97.8067 182.871 97.8049 182.959C94.7132 184.373 86.0112 189.346 87.5554 200C87.5554 200 97.8036 197.535 98.9786 187.395C100.154 197.535 110.402 200 110.402 200C111.964 189.224 103.043 184.26 100.048 182.912C100.047 182.838 100.044 182.761 100.042 182.682C100.091 181.528 100.274 179.672 100.871 177.469C118.108 199.051 141.444 185.394 141.444 185.394C128.594 167.456 108.757 172.188 101.857 174.554C102.656 172.596 103.8 170.51 105.436 168.482C143.671 165.223 173.79 133.061 173.788 93.9966C173.788 80.7058 170.26 67.6663 163.581 56.2639C177.886 32.2949 156.612 15.2673 156.61 15.2673C143.657 34.9181 157.63 52.7511 161.504 57.0776L161.49 57.0859C168.086 68.2193 171.572 80.9835 171.572 93.998C171.572 119.109 158.744 141.281 139.298 154.307C139.135 154.306 138.973 154.306 138.81 154.306C123.421 154.306 112.06 158.091 105.037 165.562C104.793 165.822 104.556 166.083 104.328 166.346C102.578 166.473 100.81 166.537 99.0283 166.537C97.1735 166.537 95.3347 166.467 93.5144 166.33C93.2897 166.072 93.0573 165.815 92.817 165.56C85.7407 158.032 74.2612 154.251 58.6982 154.304C39.2284 141.278 26.386 119.107 26.386 93.998C26.386 80.9835 29.8714 68.2193 36.4659 57.0859L36.45 57.0765C40.3258 52.7482 54.2956 34.9164 41.3428 15.2673C41.3428 15.2673 20.0664 32.2966 34.3746 56.2674ZM90.1174 165.994C83.988 160.21 74.665 157.055 62.3329 156.584C70.6786 161.482 80.085 164.764 90.1174 165.994ZM98.9271 176.126C98.2318 173.826 97.1157 171.24 95.3315 168.665C96.5591 168.724 97.7922 168.753 99.0301 168.753L99.0312 168.754C100.2 168.754 101.362 168.727 102.518 168.673C100.736 171.245 99.6218 173.828 98.9271 176.126ZM107.714 166.02C117.814 164.81 127.284 161.515 135.678 156.581C123.253 157.03 113.867 160.196 107.714 166.02ZM22.1385 80.2984C22.1385 80.2984 36.5469 55.1926 16.0235 37.532C16.0235 37.532 -0.573775 60.8569 22.1385 80.2984ZM21.2752 107.881C21.2752 107.881 26.2702 79.369 0.958831 69.7548C0.958831 69.7548 -6.70023 97.3385 21.2752 107.881ZM31.7301 135.044C31.7301 135.044 27.9849 106.34 0.958038 104.724C0.956491 104.722 1.8831 133.336 31.7301 135.044ZM47.7967 154.77C47.7967 154.77 34.2948 129.165 8.39572 137.054C8.39572 137.054 19.2214 163.557 47.7967 154.77ZM71.1185 168.369C71.1185 168.369 50.0319 148.537 28.0986 164.412C28.0986 164.412 46.9453 185.96 71.1185 168.369ZM176.682 107.881C176.682 107.881 171.687 79.369 196.998 69.7548C196.998 69.7548 204.657 97.3385 176.682 107.881ZM175.819 80.2984C175.819 80.2984 161.41 55.1926 181.934 37.532C181.934 37.532 198.531 60.8569 175.819 80.2984ZM166.227 135.044C166.227 135.044 169.972 106.34 196.999 104.724C197.001 104.722 196.074 133.336 166.227 135.044ZM150.16 154.77C150.16 154.77 163.662 129.165 189.561 137.054C189.563 137.054 178.736 163.557 150.16 154.77ZM126.839 168.369C126.839 168.369 147.925 148.537 169.859 164.412C169.859 164.412 151.012 185.96 126.839 168.369ZM71.4167 13.9656C71.6209 13.9656 71.8049 14.0816 71.8947 14.2626L73.7926 18.1114L78.0391 18.7287C78.2402 18.7565 78.4057 18.8973 78.4691 19.0907C78.5326 19.284 78.48 19.496 78.3346 19.6367L75.2623 22.6317L75.9878 26.8612C76.0219 27.0607 75.9399 27.2634 75.7759 27.3825C75.6119 27.5016 75.3938 27.5171 75.2143 27.4227L71.4165 25.4256L67.6188 27.4227C67.4393 27.5171 67.2212 27.5016 67.0572 27.3825C66.8932 27.2634 66.8112 27.0607 66.8453 26.8612L67.5708 22.6317L64.497 19.6367C64.3531 19.4944 64.3005 19.284 64.3624 19.0907C64.4258 18.8989 64.5913 18.7581 64.7924 18.7287L69.039 18.1114L70.9387 14.2626C71.0284 14.08 71.214 13.9656 71.4167 13.9656ZM126.063 14.2626C126.152 14.0816 126.336 13.9656 126.541 13.9656C126.743 13.9656 126.929 14.08 127.019 14.2626L128.918 18.1114L133.165 18.7287C133.366 18.7581 133.531 18.8989 133.595 19.0907C133.657 19.284 133.604 19.4944 133.459 19.6367L130.385 22.6317L131.11 26.8612C131.144 27.0607 131.062 27.2634 130.898 27.3825C130.734 27.5016 130.516 27.5171 130.337 27.4227L126.539 25.4256L122.741 27.4227C122.562 27.5171 122.344 27.5016 122.18 27.3825C122.016 27.2634 121.934 27.0607 121.968 26.8612L122.693 22.6317L119.621 19.6367C119.476 19.496 119.423 19.284 119.487 19.0907C119.55 18.8973 119.717 18.7565 119.917 18.7287L124.163 18.1114L126.063 14.2626ZM35.1874 96.5589C34.0349 96.5589 33.0975 95.6215 33.0975 94.469C33.0975 93.3165 34.0349 92.3791 35.1874 92.3791C36.3399 92.3791 37.2773 93.3165 37.2773 94.469C37.2789 95.6215 36.3414 96.5589 35.1874 96.5589ZM162.849 96.4719C161.697 96.4719 160.759 95.5344 160.759 94.382C160.759 93.2295 161.697 92.292 162.849 92.292C164.001 92.292 164.939 93.2295 164.939 94.382C164.94 95.5345 164.001 96.4719 162.849 96.4719ZM53.9153 141.681C52.7628 141.681 51.8254 140.744 51.8254 139.591C51.8254 138.439 52.7628 137.501 53.9153 137.501C55.0678 137.501 56.0052 138.439 56.0052 139.591C56.0052 140.742 55.0677 141.681 53.9153 141.681ZM144.184 141.622C143.032 141.622 142.093 140.685 142.093 139.531C142.093 138.378 143.03 137.439 144.184 137.439C145.337 137.439 146.276 138.377 146.276 139.531C146.274 140.685 145.337 141.622 144.184 141.622ZM40.4624 121.92C39.3099 121.92 38.3725 120.983 38.3725 119.83C38.3725 118.678 39.3099 117.74 40.4624 117.74C41.6149 117.74 42.5523 118.678 42.5523 119.83C42.5523 120.983 41.6149 121.92 40.4624 121.92ZM157.578 71.106C156.425 71.106 155.488 70.1685 155.488 69.0161C155.488 67.8636 156.425 66.9261 157.578 66.9261C158.73 66.9261 159.668 67.8636 159.668 69.0161C159.668 70.167 158.73 71.106 157.578 71.106ZM40.2089 71.6966C39.0564 71.6966 38.119 70.7591 38.119 69.6066C38.119 68.4541 39.0565 67.5167 40.2089 67.5167C41.3614 67.5167 42.2989 68.4542 42.2989 69.6066C42.2989 70.7591 41.3599 71.6966 40.2089 71.6966ZM157.827 121.334C157.547 121.334 157.274 121.278 157.015 121.17C155.953 120.721 155.454 119.493 155.902 118.432C156.231 117.655 156.987 117.154 157.829 117.154C158.109 117.154 158.383 117.21 158.643 117.319C159.704 117.768 160.204 118.998 159.755 120.061C159.425 120.832 158.669 121.334 157.827 121.334ZM92.5635 141.824H104.198L104.198 129.544C115.075 127.021 122.253 118.68 122.253 108.298C122.253 97.6576 116.541 90.7894 103.171 85.3378C93.2427 81.2291 90.3716 78.7678 90.3716 74.3605C90.3716 70.6817 92.9703 66.7509 100.266 66.7509C107.278 66.7509 111.682 69.2678 113.563 70.3429L115.817 71.6316L120.259 59.9101L118.642 58.9634C114.6 56.5933 110.081 55.2181 104.884 54.785V43.5756H93.3633V55.5105C82.8164 57.9282 76.1086 65.6985 76.1086 75.7321C76.1086 87.9359 85.8464 93.4371 96.3473 97.5549C104.535 100.874 107.875 104.219 107.875 109.098C107.875 114.469 103.303 118.078 96.4958 118.078C91.1479 118.078 85.5993 116.425 81.2707 113.538L78.9101 111.963L74.6449 123.868L76.0093 124.843C80.0036 127.696 86.3182 129.705 92.5635 130.18V141.824ZM94.8204 125.848C89.5236 125.757 83.8075 124.295 79.9834 122.12L81.2209 118.668C85.8199 121.132 91.2466 122.514 96.4971 122.514C105.81 122.514 112.313 116.997 112.313 109.099C112.313 100.412 105.086 96.3113 97.9932 93.4355C85.4382 88.513 80.5465 83.5488 80.5465 75.7322C80.5465 67.2826 86.4448 61.0715 95.9403 59.523L97.8012 59.2198V48.0104H100.451V59.0218L102.595 59.0929C107.221 59.2476 111.221 60.1712 114.762 61.9084L113.484 65.2823C110.277 63.7276 106.039 62.3168 100.269 62.3168C90.3683 62.3168 85.9376 68.3652 85.9376 74.3614C85.9376 81.6692 91.171 85.1716 101.488 89.4411C113.088 94.17 117.819 99.6339 117.819 108.298C117.819 117.145 111.461 123.912 101.621 125.536L99.7645 125.842V137.389H97.0001V125.886L94.8204 125.848Z" fill="#EE4D45"/>
</svg>
